<svg xmlns="http://www.w3.org/2000/svg"
shape-rendering="geometricPrecision"
width="4000" height="4000" viewBox="0 0 1024 1024"><rect width="100%" height="100%" fill="#F8F8F8" />
  <metadata>null</metadata>

<path d="
M 378.963 655.058
C 382.301 647.196 387.673 639.961 394.357 634.618
C 401.787 628.678 410.657 624.604 419.274 620.725
C 422.328 619.35 425.28 617.723 428.224 616.131
C 429.417 615.485 431.078 613.975 432.504 614.108
C 433.563 614.207 434.673 614.947 435.648 615.34
C 437.808 616.21 439.992 616.966 442.196 617.716
C 447.48 619.515 452.946 620.581 458.397 621.72
C 460.393 622.137 462.385 622.577 464.38 623.002
C 464.682 623.067 466.337 623.488 466.517 623.188
C 463.292 620.977 459.59 619.405 456.259 617.31
C 439.86 606.995 422.456 596.134 413.298 578.385
C 415.222 577.431 417.787 579.145 419.644 579.843
C 424.141 581.531 428.888 582.601 433.6 583.489
C 448.626 586.321 463.267 586.452 478.254 583.502
C 478.4 589.152 478.388 594.803 478.404 600.455
C 478.41 602.83 478.051 605.745 480.02 607.48
C 481.83 609.074 484.263 608.702 486.505 608.678
C 490.838 608.631 495.173 608.632 499.507 608.611
C 517.172 608.525 534.839 608.521 552.505 608.525
C 557.4 608.526 562.295 608.549 567.19 608.568
C 569.11 608.576 571.892 608.898 573.436 607.558
C 575.758 605.541 575.416 603.356 575.379 600.498
C 575.329 596.666 575.306 592.834 575.309 589.001
C 575.317 577.669 575.248 566.336 575.253 555.003
C 575.256 548.652 575.616 542.176 575.205 535.84
C 575.526 535.45 576.123 536.307 576.374 536.526
C 577.572 537.571 578.854 538.545 580.074 539.571
C 583.39 542.363 587.339 547.137 592.207 544.554
C 593.933 543.638 595.013 541.874 596.14 540.351
C 598.084 537.727 600.106 535.134 602.12 532.562
C 605.12 528.733 608.039 524.834 611.059 521.021
C 612.844 518.766 615.003 516.499 615.229 513.484
C 615.658 507.76 609.375 504.235 605.677 500.828
C 598.161 493.905 590.886 486.714 583.351 479.811
C 581.424 478.046 579.405 476.367 577.232 474.912
C 576.311 474.294 574.683 473.922 574.067 473.06
C 575.052 468.325 578.851 463.234 581.496 459.258
C 585.546 453.168 590.997 447.286 597.405 443.63
C 610.154 436.357 626.522 435.243 639.519 442.51
C 644.944 445.543 648.689 450.279 652.406 455.11
C 653.086 455.649 654.225 455.418 655.047 455.449
C 656.752 455.512 658.485 455.689 660.186 455.843
C 664.192 456.205 668.158 456.771 672.111 457.516
C 674.401 457.949 677.062 458.234 679.118 459.403
C 679.321 459.805 679.221 460.004 679.085 460.42
C 676.649 462.744 672.298 464.063 669.327 465.648
C 661.274 469.942 652.532 474.885 647.722 482.932
C 638.011 499.177 635.541 518.196 630.187 536.048
C 625.138 552.888 616.775 568.906 605.108 582.121
C 595.82 592.642 584.73 602.848 572.439 609.786
C 540.683 627.709 504.498 634.779 468.482 637.544
C 460.274 638.174 451.726 638.219 443.517 637.556
C 437.491 637.068 431.182 636.416 425.14 636.938
C 412.901 637.995 402.509 642.183 391.835 648.067
C 388.579 649.862 385.467 652.035 382.507 654.279
C 381.579 654.983 379.806 656.794 378.597 656.645
C 378.713 656.114 378.84 655.587 378.963 655.058 Z
M 619.363 459.045
C 617.01 466.615 628.829 469.851 631.216 462.802
C 633.855 455.007 621.818 451.149 619.363 459.045 Z"
opacity="1" fill="rgb(109,65,168)" fill-rule="evenodd" />
<path d="
M 424.451 450.592
C 424.745 449.485 425.075 448.513 425.589 447.484
C 426.46 447.299 426.931 448.063 427.581 448.547
C 429.102 449.681 430.595 450.875 432.171 451.932
C 436.61 454.908 441.079 457.501 446.038 459.508
C 447.673 460.17 449.463 461.163 451.268 461.191
C 448.187 456.851 443.392 453.665 440.101 449.403
C 430.718 437.255 425.883 422.71 428.63 407.385
C 429.409 403.034 430.758 398.553 432.866 394.654
C 433.587 393.319 434.161 391.639 435.522 390.837
C 436.393 390.95 436.906 392.405 437.345 393.145
C 438.77 395.551 439.928 398.104 441.378 400.496
C 445.257 406.893 450.731 411.812 456.728 416.15
C 458.421 417.374 461.197 420.175 463.362 420.283
C 463.053 418.594 461.083 416.857 460.151 415.454
C 458.116 412.388 456.42 409.127 454.791 405.831
C 448.728 393.568 446.856 378.387 451.908 365.481
C 453.522 361.357 455.776 357.409 458.466 353.899
C 459.498 352.552 460.47 350.63 462.442 350.935
C 465.135 355.529 466.78 360.799 469.188 365.575
C 472.319 371.784 476.727 377.803 481.319 383.014
C 488.912 391.628 497.374 399.638 506.65 406.428
C 519.147 415.575 532.716 423.123 544.689 433.01
C 554.478 441.093 563.31 450.807 568.211 462.665
C 569.123 464.87 570 467.07 570.844 469.302
C 571.17 470.162 571.946 471.728 571.866 472.636
C 565.447 471.833 559.232 471.633 552.73 471.798
C 550.503 471.854 547.01 471.45 545.185 472.922
C 542.878 474.781 543.292 478.952 542.181 481.554
C 539.522 487.779 533.647 491.487 526.984 491.824
C 519.664 492.194 512.711 488.436 509.926 481.473
C 508.809 478.678 509.884 473.765 506.628 472.191
C 505.555 471.673 503.996 471.83 502.834 471.81
C 500.292 471.768 497.747 471.788 495.205 471.762
C 488.844 471.697 482.785 471.619 476.839 474.168
C 471.851 476.306 468.446 480.412 464.665 484.135
C 459.463 489.259 454.19 494.335 448.909 499.37
C 447.905 499.44 446.832 498.206 446.097 497.599
C 443.564 495.506 441.219 493.212 438.976 490.813
C 429.583 480.771 421.74 464.707 424.451 450.592 Z"
opacity="1" fill="rgb(93,72,176)" fill-rule="evenodd" />
<path d="
M 446.864 512.499
C 448.912 509.744 451.938 507.544 454.447 505.216
C 459.133 500.869 463.774 496.455 468.341 491.983
C 472.434 487.976 476.624 482.8 482.211 480.912
C 488.073 478.931 495.112 480.344 501.196 480.211
C 502.724 484.298 503.481 488.277 506.402 491.727
C 514.99 501.868 531.665 503.161 542.024 494.96
C 547.133 490.916 548.492 485.735 551.353 480.244
C 557.41 480.278 564.079 479.117 569.946 480.954
C 574.523 482.387 577.975 486.328 581.344 489.509
C 585.759 493.676 590.301 497.713 594.723 501.873
C 597.682 504.655 600.623 507.479 603.712 510.115
C 604.589 510.863 606.5 512.014 606.226 513.34
C 605.511 515.611 602.604 518.197 601.124 520.094
C 597.082 525.277 593.326 530.974 588.91 535.828
C 587.412 535.4 586.139 533.842 584.935 532.905
C 581.502 530.236 578.096 527.446 574.852 524.551
C 573.219 523.093 570.953 520.323 568.519 520.753
C 566.022 521.193 566.298 523.305 566.304 525.332
C 566.318 530.055 566.333 534.779 566.37 539.502
C 566.48 553.626 566.463 567.761 566.541 581.878
C 566.565 586.083 566.583 590.29 566.574 594.496
C 566.571 596.1 567.047 598.456 566.479 599.967
C 559.516 599.64 552.475 599.937 545.504 599.942
C 532.113 599.951 518.723 599.948 505.333 599.947
C 498.864 599.946 492.262 600.458 485.804 599.975
C 484.962 594.012 485.624 587.523 485.602 581.499
C 485.556 568.999 485.596 556.498 485.602 543.998
C 485.605 538.997 485.591 533.997 485.589 528.997
C 485.589 527.066 486.078 524.395 485.071 522.673
C 482.539 520.307 480.172 522.703 478.179 524.432
C 474.823 527.343 471.448 530.228 468.093 533.137
C 466.973 534.107 465.644 535.925 464.003 535.867
C 462.138 535.801 460.387 532.826 459.297 531.542
C 455.679 527.281 452.264 522.835 448.984 518.31
C 447.773 516.641 446.012 514.687 446.864 512.499 Z"
opacity="1" fill="rgb(89,76,179)" fill-rule="evenodd" />

</svg>