<svg xmlns="http://www.w3.org/2000/svg"
shape-rendering="geometricPrecision"
width="4000" height="4000" viewBox="0 0 1024 1024">
  <metadata>null</metadata>

<path d="
M 378.971 655.109
C 380.065 651.763 382.167 648.614 384.151 645.74
C 392.692 633.368 405.584 627.011 418.748 620.588
C 421.44 619.274 424.155 618.035 426.809 616.638
C 428.474 615.762 430.157 614.437 431.958 613.893
C 434.631 614.116 437.517 615.952 440.087 616.765
C 446.025 618.645 451.931 620.489 458.049 621.697
C 460.33 622.147 462.614 622.525 464.899 622.945
C 465.46 623.049 466.544 623.501 467.067 623.151
C 465.495 621.917 463.477 621.163 461.721 620.219
C 458.508 618.491 455.342 616.616 452.223 614.723
C 437.234 605.625 420.987 594.538 413.307 578.187
C 415.163 577.339 417.567 578.896 419.352 579.551
C 424.066 581.281 428.845 582.412 433.772 583.345
C 448.24 586.085 463.806 587.081 478.222 583.502
C 477.849 589.089 478.215 594.899 478.295 600.508
C 478.327 602.806 478.122 605.678 479.893 607.44
C 481.342 608.881 483.38 608.716 485.267 608.722
C 488.677 608.735 492.089 608.692 495.5 608.694
C 510.333 608.701 525.166 608.719 540 608.694
C 548.666 608.679 557.335 608.604 566.001 608.638
C 568.944 608.65 573.718 609.191 574.955 605.688
C 575.658 603.006 575.307 599.975 575.285 597.225
C 575.247 592.484 575.23 587.744 575.223 583.003
C 575.2 567.246 575.296 551.481 575.188 535.726
C 580.691 537.871 583.226 545.656 590.003 545.231
C 593.572 545.008 595.795 540.926 597.705 538.343
C 602.075 532.433 606.757 526.749 611.152 520.855
C 613.216 518.088 615.782 515.361 615.21 511.64
C 614.527 507.184 608.947 503.882 605.859 501.063
C 598.921 494.73 592.187 488.16 585.272 481.801
C 582.222 478.996 578.755 475.012 574.78 473.566
C 574.399 472.565 574.992 471.587 575.369 470.636
C 576.155 468.651 577.078 466.766 578.06 464.871
C 582.438 456.42 588.621 448.569 596.846 443.601
C 609.45 435.986 628.293 434.569 640.828 443.153
C 643.955 445.294 646.776 447.704 649.155 450.672
C 650.155 451.918 651.579 454.806 653.125 455.341
C 654.937 455.968 657.878 455.597 659.833 455.703
C 664.29 455.945 668.83 456.585 673.202 457.478
C 675.188 457.883 677.411 458.123 679.177 459.175
C 679.292 459.671 679.324 459.997 679.199 460.487
C 676.773 462.248 673.594 463.3 670.935 464.695
C 663.087 468.81 654.131 473.743 649.017 481.2
C 639.322 495.335 636.918 512.672 632.483 528.809
C 627.354 547.474 619.795 564.711 607.421 579.761
C 574.339 619.998 520.053 634.477 469.947 637.387
C 460.852 637.915 451.627 638.126 442.527 637.536
C 435.428 637.075 428.228 636.416 421.124 637.151
C 410.38 638.262 400.7 642.886 391.448 648.154
C 388.52 649.821 385.608 651.735 382.901 653.744
C 381.815 654.55 380.415 656.347 378.975 656.208
C 378.885 655.424 378.874 655.79 378.971 655.109 Z
M 619.351 459.046
C 617.156 466.977 629.3 470.17 631.35 462.417
C 633.392 454.694 621.532 451.168 619.351 459.046 Z"
opacity="1" fill="rgb(248,247,247)" fill-rule="evenodd" />
<path d="
M 424.416 450.081
C 424.687 448.973 425.022 447.895 425.463 446.842
C 427.998 447.773 430.339 450.45 432.594 451.975
C 438.269 455.814 444.529 459.709 451.324 461.146
C 451.384 460.848 450.686 460.414 450.49 460.212
C 449.453 459.143 448.36 458.137 447.287 457.106
C 443.095 453.079 439.388 448.704 436.249 443.807
C 428.746 432.105 425.94 418.485 429.037 404.862
C 430.157 399.932 431.895 394.802 434.969 390.732
C 436.252 390.589 436.649 391.713 437.226 392.713
C 438.666 395.212 439.824 397.863 441.376 400.302
C 445.454 406.711 450.915 411.547 456.886 416.13
C 458.466 417.342 461.402 420.102 463.416 420.282
C 463.587 419.466 461.64 417.552 461.169 416.858
C 458.873 413.471 456.924 409.893 455.046 406.262
C 448.209 393.042 446.309 375.625 453.337 362.138
C 455.006 358.935 456.803 355.866 458.99 352.986
C 459.907 351.779 460.858 350.522 462.521 350.735
C 463.983 351.943 464.323 354.233 465 355.922
C 466.442 359.519 468.034 363.026 469.876 366.438
C 474.893 375.735 481.804 383.841 489.228 391.304
C 494.658 396.763 500.609 401.915 506.829 406.455
C 524.831 419.595 544.948 429.574 559.232 447.237
C 565.534 455.029 568.562 463.732 572.187 472.874
C 570.378 472.902 568.226 472.174 566.378 471.986
C 562.037 471.546 557.555 471.747 553.196 471.732
C 551.048 471.725 547.537 471.164 545.634 472.326
C 542.988 473.943 543.415 478.011 542.448 480.63
C 540.305 486.434 535.608 490.649 529.382 491.56
C 522.363 492.587 514.462 490.206 510.972 483.625
C 508.968 479.846 510.307 472.232 504.787 471.777
C 501.392 471.497 497.916 471.632 494.51 471.615
C 486.95 471.576 479.391 471.644 472.999 476.277
C 466.579 480.931 461.078 487.427 455.361 492.915
C 453.673 494.536 452.022 496.203 450.265 497.748
C 449.76 498.192 449.234 499.041 448.6 499.262
C 433.677 488.786 421.186 469.006 424.416 450.081 Z"
opacity="1" fill="rgb(248,248,248)" fill-rule="evenodd" />
<path d="
M 446.783 512.476
C 449.279 508.696 453.834 505.78 457.129 502.688
C 461.895 498.217 466.694 493.778 471.427 489.272
C 474.837 486.027 478.005 482.302 482.603 480.719
C 488.408 478.722 495.232 480.319 501.244 480.085
C 502.841 484.762 503.845 489.069 507.41 492.784
C 516.709 502.475 533.66 502.677 543.504 493.749
C 547.619 490.017 549.316 485.256 551.147 480.189
C 553.367 479.631 556.206 480.042 558.505 480.044
C 562.387 480.048 566.694 479.657 570.391 481.077
C 574.684 482.725 577.688 485.996 580.876 489.157
C 584.488 492.738 588.332 496.179 592.112 499.587
C 595.377 502.53 598.553 505.577 601.772 508.57
C 603.264 509.958 605.307 511.395 606.301 513.198
C 606.084 514.898 603.697 516.88 602.662 518.185
C 599.358 522.353 596.088 526.566 592.892 530.817
C 591.906 532.128 590.88 533.411 589.922 534.743
C 589.565 535.239 589.135 536.091 588.504 536.091
C 583.357 531.31 577.786 526.911 572.513 522.263
C 570.718 520.681 567.953 519.739 566.532 522.388
C 565.811 527.861 566.464 533.758 566.41 539.28
C 566.278 553.009 566.533 566.762 566.57 580.496
C 566.583 585.333 566.56 590.17 566.594 595.006
C 566.603 596.294 566.66 597.582 566.673 598.87
C 566.675 599.119 566.778 599.763 566.568 599.952
C 548.156 599.933 529.735 599.848 511.321 599.98
C 502.937 600.04 493.978 599.125 485.669 600.265
C 486.039 590.713 485.643 581.061 485.624 571.497
C 485.604 561.471 485.944 551.369 485.512 541.354
C 485.321 536.918 485.488 532.446 485.467 528.007
C 485.458 526.242 485.937 523.797 484.654 522.394
C 482.054 520.634 480.07 522.782 478.185 524.471
C 474.984 527.339 471.726 530.151 468.472 532.956
C 467.404 533.876 466.007 535.72 464.48 535.785
C 462.082 535.887 460.303 532.748 459.01 531.148
C 455.704 527.055 452.358 522.972 449.242 518.732
C 447.9 516.905 446.192 514.89 446.783 512.476 Z"
opacity="1" fill="rgb(248,248,248)" fill-rule="evenodd" />

</svg>